<svg width="1440" height="1720" viewBox="0 0 1440 1720" fill="none" xmlns="http://www.w3.org/2000/svg">
<path d="M1274.26 1210.44C1270.78 1127.24 1073.31 935.31 916.488 824.617C735.761 697.065 652.671 708.22 519.916 592.248C398.764 486.437 406.076 423.052 316.253 348.252C233.704 279.512 90.8264 219.196 -173.971 235.832" stroke="url(#paint0_linear_45_266)" stroke-opacity="0.1" stroke-width="2" stroke-miterlimit="10"/>
<path d="M-165.523 256.817C95.9563 240.783 239.253 299.793 323.398 367.828C385.751 418.292 403.144 463.988 447.365 521.525C469.35 550.588 497.816 580.693 530.208 609.137C636.301 702.35 710.152 715.928 831.149 785.378C862 803.039 893.265 822.926 924.298 844.631C1082.04 954.675 1278.65 1139.15 1285.97 1222.16" stroke="url(#paint1_linear_45_266)" stroke-opacity="0.1" stroke-width="2" stroke-miterlimit="10"/>
<path d="M-157.04 277.753C101.117 262.335 244.755 319.998 330.312 387.215C393.203 436.626 412.393 482.014 457 538.502C479.683 567.58 508.156 597.445 540.249 625.819C644.695 718.15 717.691 734.991 838.929 805.393C869.747 823.255 900.897 843.055 931.88 864.476C1090.51 974.119 1286.28 1150.9 1297.46 1233.71" stroke="url(#paint2_linear_45_266)" stroke-opacity="0.1" stroke-width="2" stroke-miterlimit="10"/>
<path d="M-148.577 298.586C106.198 283.781 250.25 340.166 337.331 406.603C400.805 455.024 421.695 500.008 466.761 555.515C490.09 584.563 518.546 614.176 550.315 642.464C653.216 733.989 725.13 753.918 846.735 825.377C877.54 843.42 908.614 863.145 939.573 884.311C1099.09 993.408 1294.01 1162.63 1309.03 1245.24" stroke="url(#paint3_linear_45_266)" stroke-opacity="0.1" stroke-width="2" stroke-miterlimit="10"/>
<path d="M-140.132 319.446C111.329 305.221 255.686 360.283 344.369 425.998C408.345 473.388 431.064 518.062 476.574 572.538C500.565 601.577 529.057 630.988 560.556 659.228C661.913 749.952 732.819 773.037 854.844 845.581C885.568 863.795 916.496 883.417 947.353 904.272C1107.79 1012.85 1301.84 1174.53 1320.74 1256.96" stroke="url(#paint4_linear_45_266)" stroke-opacity="0.1" stroke-width="2" stroke-miterlimit="10"/>
<path d="M-131.78 340.119C116.438 326.552 261.492 379.222 351.413 445.3C415.607 492.434 440.457 535.959 486.336 589.464C510.982 618.47 539.508 647.679 570.726 675.873C670.539 765.803 740.384 792.01 862.648 865.53C893.322 883.902 924.149 903.439 954.94 924.019C1116.31 1032.03 1309.49 1186.22 1332.24 1268.49" stroke="url(#paint5_linear_45_266)" stroke-opacity="0.1" stroke-width="2" stroke-miterlimit="10"/>
<path d="M-123.2 360.893C121.566 347.851 266.541 400.365 358.443 464.468C423.313 509.891 449.881 553.909 496.117 606.37C521.388 635.318 549.952 664.333 580.889 692.482C679.158 781.621 748.024 810.996 870.553 885.514C901.174 904.061 931.903 923.524 962.621 943.827C1124.91 1051.33 1317.24 1197.95 1343.83 1280.07" stroke="url(#paint6_linear_45_266)" stroke-opacity="0.1" stroke-width="2" stroke-miterlimit="10"/>
<path d="M-114.746 381.579C126.621 369.086 271.959 420.295 365.467 483.785C430.801 528.099 459.384 571.791 505.906 623.252C531.782 652.118 560.398 680.946 591.066 709.044C687.763 797.386 755.642 829.953 878.47 905.452C907.046 923.034 937.489 942.059 970.318 963.578C1133.56 1070.56 1324.98 1209.71 1355.42 1291.62" stroke="url(#paint7_linear_45_266)" stroke-opacity="0.1" stroke-width="2" stroke-miterlimit="10"/>
<path d="M-106.295 402.133C131.798 390.291 277.341 440.228 372.485 502.87C438.282 546.203 468.906 589.592 515.746 640.054C542.229 668.836 570.91 697.506 601.31 725.587C696.464 813.148 763.316 848.841 886.454 925.407C915.122 943.227 945.483 962.227 978.106 983.37C1142.07 1089.68 1332.72 1221.42 1367.02 1303.14" stroke="url(#paint8_linear_45_266)" stroke-opacity="0.1" stroke-width="2" stroke-miterlimit="10"/>
<path d="M-97.812 422.658C136.93 411.414 282.731 460.104 379.517 521.998C445.748 564.344 478.553 607.475 525.451 656.768C552.505 685.435 581.247 713.95 611.37 742.009C705.006 828.808 770.85 867.67 894.294 945.204C922.926 963.173 953.312 982.197 985.728 1002.98C1150.81 1108.84 1340.48 1233.03 1378.63 1314.6" stroke="url(#paint9_linear_45_266)" stroke-opacity="0.1" stroke-width="2" stroke-miterlimit="10"/>
<path d="M-89.3599 443.079C142.033 432.422 288.111 479.909 386.478 540.949C453.14 582.323 488.029 625.103 535.179 673.423C562.804 701.956 591.628 730.329 621.484 758.374C713.551 844.382 778.391 886.408 902.136 965.055C930.855 983.288 961.168 1002.25 993.348 1022.66C1159.37 1127.96 1348.13 1244.69 1390.18 1326.13" stroke="url(#paint10_linear_45_266)" stroke-opacity="0.1" stroke-width="2" stroke-miterlimit="10"/>
<path d="M-80.9076 463.416C147.158 453.375 293.543 499.67 393.566 559.913C460.681 600.347 497.686 642.772 544.986 690.05C572.178 717.221 600.044 744.945 631.699 774.745C722.228 859.973 786.057 905.192 910.096 984.869C938.853 1003.32 969.118 1022.25 1001.14 1042.34C1168.1 1147.08 1355.98 1256.37 1401.86 1337.64" stroke="url(#paint11_linear_45_266)" stroke-opacity="0.1" stroke-width="2" stroke-miterlimit="10"/>
<path d="M-72.4525 483.655C152.276 474.266 298.79 519.232 400.575 578.743C468.147 618.228 507.351 660.335 554.769 706.577C582.75 733.867 610.742 761.472 641.866 791.006C730.843 875.509 793.652 923.851 918.008 1004.6C946.801 1023.28 977.043 1042.19 1008.78 1061.87C1176.66 1166.01 1363.68 1267.9 1413.4 1349.04" stroke="url(#paint12_linear_45_266)" stroke-opacity="0.1" stroke-width="2" stroke-miterlimit="10"/>
<path d="M-64.0505 503.764C157.387 494.963 304.313 538.915 407.582 597.487C475.602 636.06 517.016 677.803 564.547 723.037C593.349 750.441 621.437 777.923 651.925 807.133C739.395 890.862 801.138 942.399 925.914 1024.29C954.773 1043.2 984.943 1062.06 1016.47 1081.4C1185.3 1184.95 1371.43 1279.43 1425 1360.43" stroke="url(#paint13_linear_45_266)" stroke-opacity="0.1" stroke-width="2" stroke-miterlimit="10"/>
<path d="M-55.5157 523.794C162.515 515.556 309.652 558.341 414.617 616.088C483.114 653.761 526.716 695.114 574.305 739.318C603.93 766.829 632.161 794.251 662.195 823.256C748.073 906.201 808.865 960.969 933.831 1043.86C963.997 1063.7 994.159 1082.7 1024.2 1100.79C1193.92 1203.79 1379.25 1290.96 1436.61 1371.75" stroke="url(#paint14_linear_45_266)" stroke-opacity="0.1" stroke-width="2" stroke-miterlimit="10"/>
<path d="M-47.0629 543.656C167.637 536.034 315.2 577.754 421.547 634.5C490.516 671.285 536.338 712.248 584.107 755.542C614.56 783.15 642.882 810.478 672.356 839.22C756.719 921.445 816.482 979.411 941.692 1063.33C971.788 1083.35 1001.9 1102.33 1031.83 1120.15C1202.55 1222.5 1386.92 1302.31 1448.24 1383.01" stroke="url(#paint15_linear_45_266)" stroke-opacity="0.1" stroke-width="2" stroke-miterlimit="10"/>
<path d="M-38.6079 563.36C172.738 556.325 320.729 597.097 428.656 652.892C498.041 688.781 546.12 729.328 593.862 771.581C625.145 799.279 653.549 826.553 682.494 855.041C765.291 936.518 824.08 997.722 949.66 1082.79C979.688 1102.97 1009.75 1121.92 1039.58 1139.47C1211.14 1241.21 1394.67 1313.65 1459.83 1394.28" stroke="url(#paint16_linear_45_266)" stroke-opacity="0.1" stroke-width="2" stroke-miterlimit="10"/>
<path d="M-30.1249 579.154C177.819 572.757 326.022 612.455 435.622 667.601C505.558 702.777 555.801 742.956 603.59 784.393C635.816 812.322 664.231 839.576 692.647 867.914C773.926 948.902 831.694 1013.56 957.604 1100.03C987.565 1120.44 1017.59 1139.42 1047.31 1156.76C1219.79 1258.2 1402.46 1323.51 1471.49 1404.3" stroke="url(#paint17_linear_45_266)" stroke-opacity="0.1" stroke-width="2" stroke-miterlimit="10"/>
<path d="M-21.6691 594.664C182.799 588.708 331.462 627.655 442.604 682.073C513.033 716.521 565.444 756.312 613.323 797.005C646.304 825.08 674.94 852.444 702.781 880.587C782.53 961.146 839.319 1029.27 965.544 1117.11C995.438 1137.75 1025.42 1156.77 1055.04 1173.89C1228.44 1275.04 1410.35 1333.32 1483.13 1414.16" stroke="url(#paint18_linear_45_266)" stroke-opacity="0.1" stroke-width="2" stroke-miterlimit="10"/>
<path d="M-13.2112 610.025C188 604.721 336.934 642.696 449.586 696.258C520.562 729.997 575.122 769.356 623.095 809.28C656.934 837.451 685.612 864.925 712.948 892.955C791.149 973.047 846.96 1044.7 973.513 1134C1003.34 1154.88 1033.3 1173.95 1062.79 1190.84C1237.11 1291.64 1418.04 1342.6 1494.8 1423.75" stroke="url(#paint19_linear_45_266)" stroke-opacity="0.1" stroke-width="2" stroke-miterlimit="10"/>
<path d="M-4.72454 625.373C193.106 620.617 342.395 657.748 456.486 710.361C527.977 743.384 584.664 782.263 632.723 821.444C667.417 849.725 696.194 877.321 722.986 905.152C799.687 984.821 854.52 1060.04 981.385 1150.77C1011.15 1171.87 1041.09 1191 1070.48 1207.68C1245.59 1307.94 1425.73 1351.84 1506.42 1433.19" stroke="url(#paint20_linear_45_266)" stroke-opacity="0.1" stroke-width="2" stroke-miterlimit="10"/>
<path d="M3.70833 640.682C319.296 633.817 517.038 733.423 642.583 833.691C779.633 943.145 817.795 1043.24 989.46 1167.67C1190.84 1313.63 1419.31 1347.25 1518.13 1442.57" stroke="url(#paint21_linear_45_266)" stroke-opacity="0.1" stroke-width="2" stroke-miterlimit="10"/>
<defs>
<linearGradient id="paint0_linear_45_266" x1="595.054" y1="545.52" x2="482.504" y2="703.506" gradientUnits="userSpaceOnUse">
<stop stop-color="#155ADA"/>
<stop offset="1" stop-color="#0B743B"/>
</linearGradient>
<linearGradient id="paint1_linear_45_266" x1="603.905" y1="566.74" x2="491.345" y2="724.749" gradientUnits="userSpaceOnUse">
<stop stop-color="#155ADA"/>
<stop offset="1" stop-color="#0B743B"/>
</linearGradient>
<linearGradient id="paint2_linear_45_266" x1="612.673" y1="587.802" x2="500.078" y2="745.86" gradientUnits="userSpaceOnUse">
<stop stop-color="#155ADA"/>
<stop offset="1" stop-color="#0B743B"/>
</linearGradient>
<linearGradient id="paint3_linear_45_266" x1="621.485" y1="608.748" x2="508.821" y2="766.901" gradientUnits="userSpaceOnUse">
<stop stop-color="#155ADA"/>
<stop offset="1" stop-color="#0B743B"/>
</linearGradient>
<linearGradient id="paint4_linear_45_266" x1="630.387" y1="629.673" x2="517.577" y2="788.019" gradientUnits="userSpaceOnUse">
<stop stop-color="#155ADA"/>
<stop offset="1" stop-color="#0B743B"/>
</linearGradient>
<linearGradient id="paint5_linear_45_266" x1="639.162" y1="650.277" x2="526.131" y2="808.907" gradientUnits="userSpaceOnUse">
<stop stop-color="#155ADA"/>
<stop offset="1" stop-color="#0B743B"/>
</linearGradient>
<linearGradient id="paint6_linear_45_266" x1="648.114" y1="670.892" x2="534.824" y2="829.855" gradientUnits="userSpaceOnUse">
<stop stop-color="#155ADA"/>
<stop offset="1" stop-color="#0B743B"/>
</linearGradient>
<linearGradient id="paint7_linear_45_266" x1="657.008" y1="691.45" x2="543.451" y2="850.756" gradientUnits="userSpaceOnUse">
<stop stop-color="#155ADA"/>
<stop offset="1" stop-color="#0B743B"/>
</linearGradient>
<linearGradient id="paint8_linear_45_266" x1="665.946" y1="711.724" x2="552.002" y2="871.524" gradientUnits="userSpaceOnUse">
<stop stop-color="#155ADA"/>
<stop offset="1" stop-color="#0B743B"/>
</linearGradient>
<linearGradient id="paint9_linear_45_266" x1="674.912" y1="731.934" x2="560.56" y2="892.255" gradientUnits="userSpaceOnUse">
<stop stop-color="#155ADA"/>
<stop offset="1" stop-color="#0B743B"/>
</linearGradient>
<linearGradient id="paint10_linear_45_266" x1="683.886" y1="751.909" x2="569.023" y2="912.879" gradientUnits="userSpaceOnUse">
<stop stop-color="#155ADA"/>
<stop offset="1" stop-color="#0B743B"/>
</linearGradient>
<linearGradient id="paint11_linear_45_266" x1="692.943" y1="771.732" x2="577.49" y2="933.452" gradientUnits="userSpaceOnUse">
<stop stop-color="#155ADA"/>
<stop offset="1" stop-color="#0B743B"/>
</linearGradient>
<linearGradient id="paint12_linear_45_266" x1="701.973" y1="791.3" x2="585.839" y2="953.881" gradientUnits="userSpaceOnUse">
<stop stop-color="#155ADA"/>
<stop offset="1" stop-color="#0B743B"/>
</linearGradient>
<linearGradient id="paint13_linear_45_266" x1="711.039" y1="810.648" x2="594.129" y2="974.212" gradientUnits="userSpaceOnUse">
<stop stop-color="#155ADA"/>
<stop offset="1" stop-color="#0B743B"/>
</linearGradient>
<linearGradient id="paint14_linear_45_266" x1="720.222" y1="829.715" x2="602.408" y2="994.416" gradientUnits="userSpaceOnUse">
<stop stop-color="#155ADA"/>
<stop offset="1" stop-color="#0B743B"/>
</linearGradient>
<linearGradient id="paint15_linear_45_266" x1="729.428" y1="848.464" x2="610.571" y2="1014.48" gradientUnits="userSpaceOnUse">
<stop stop-color="#155ADA"/>
<stop offset="1" stop-color="#0B743B"/>
</linearGradient>
<linearGradient id="paint16_linear_45_266" x1="738.682" y1="866.848" x2="618.628" y2="1034.37" gradientUnits="userSpaceOnUse">
<stop stop-color="#155ADA"/>
<stop offset="1" stop-color="#0B743B"/>
</linearGradient>
<linearGradient id="paint17_linear_45_266" x1="749.4" y1="876.461" x2="624.375" y2="1050.18" gradientUnits="userSpaceOnUse">
<stop stop-color="#155ADA"/>
<stop offset="1" stop-color="#0B743B"/>
</linearGradient>
<linearGradient id="paint18_linear_45_266" x1="760.229" y1="885.239" x2="629.849" y2="1065.61" gradientUnits="userSpaceOnUse">
<stop stop-color="#155ADA"/>
<stop offset="1" stop-color="#0B743B"/>
</linearGradient>
<linearGradient id="paint19_linear_45_266" x1="771.15" y1="893.417" x2="635.119" y2="1080.77" gradientUnits="userSpaceOnUse">
<stop stop-color="#155ADA"/>
<stop offset="1" stop-color="#0B743B"/>
</linearGradient>
<linearGradient id="paint20_linear_45_266" x1="782.1" y1="901.271" x2="640.251" y2="1095.77" gradientUnits="userSpaceOnUse">
<stop stop-color="#155ADA"/>
<stop offset="1" stop-color="#0B743B"/>
</linearGradient>
<linearGradient id="paint21_linear_45_266" x1="793.119" y1="908.825" x2="645.269" y2="1110.65" gradientUnits="userSpaceOnUse">
<stop stop-color="#155ADA"/>
<stop offset="1" stop-color="#0B743B"/>
</linearGradient>
</defs>
</svg>
